# xmcd
#
# Track frame offsets:
#	150
#	13725
#	24041
#	48868
#	68447
#	81776
#	99093
#	124324
#	150246
#	163220
#	178969
#	197377
#	211990
#	223265
#	245106
#	265830
#	279425
#	294724
#	306924
#	323540
#	338839
#
# Disc length: 4763 seconds
#
# Revision: 1
# Processed by: cddbd v1.5.1PL2 Copyright (c) Steve Scherf et al.
# Submitted via: audiograbber 1.83.01
#
DISCID=24129915
DTITLE=Lyle Lovett - Step inside this house
DYEAR=1998
DGENRE=Country
TTITLE0=Bears
TTITLE1=Lungs
TTITLE2=Step inside this house
TTITLE3=Memphis Midnight/Memphis Morning
TTITLE4=I´ve had enough
TTITLE5=Teach me about love
TTITLE6=Sleepwalking
TTITLE7=Ballard of the snow leopard and the tanqueray cowboy
TTITLE8=More pretty girls than one
TTITLE9=West texas highway
TTITLE10=Rollin´ by
TTITLE11=Texas trilogy: Daybreak
TTITLE12=Texas trilogy: Train ride
TTITLE13=Texas trilogy: Bosque county romance
TTITLE14=Flyin´shoes
TTITLE15=Babes in the woods
TTITLE16=Highway kind
TTITLE17=Lonely in Love
TTITLE18=If i needed you
TTITLE19=I´ll come knockin´
TTITLE20=Texas river song
EXTD=
EXTT0=
EXTT1=
EXTT2=
EXTT3=
EXTT4=
EXTT5=
EXTT6=
EXTT7=
EXTT8=
EXTT9=
EXTT10=
EXTT11=
EXTT12=
EXTT13=
EXTT14=
EXTT15=
EXTT16=
EXTT17=
EXTT18=
EXTT19=
EXTT20=
PLAYORDER=
